<svg version="1.1" viewBox="0.0 0.0 1355.0787401574803 808.0682414698163" fill="none" stroke="none" stroke-linecap="square" stroke-miterlimit="10" xmlns:xlink="http://www.w3.org/1999/xlink" xmlns="http://www.w3.org/2000/svg"><clipPath id="p.0"><path d="m0 0l1355.0787 0l0 808.06824l-1355.0787 0l0 -808.06824z" clip-rule="nonzero"/></clipPath><g clip-path="url(#p.0)"><path fill="#000000" fill-opacity="0.0" d="m0 0l1355.0787 0l0 808.06824l-1355.0787 0z" fill-rule="evenodd"/><path fill="#ffffff" d="m386.208 327.72888l18.371613 -10.472748l7.9906006 -24.07843l7.9906006 24.07843l18.371582 10.472748l-18.371582 10.472778l-7.9906006 24.0784l-7.9906006 -24.0784z" fill-rule="evenodd"/><path stroke="#ffffff" stroke-width="1.0" stroke-linejoin="round" stroke-linecap="butt" d="m386.208 327.72888l18.371613 -10.472748l7.9906006 -24.07843l7.9906006 24.07843l18.371582 10.472748l-18.371582 10.472778l-7.9906006 24.0784l-7.9906006 -24.0784z" fill-rule="evenodd"/><path fill="#ffffff" d="m548.70593 418.09622l18.371582 -10.472748l7.9906006 -24.07843l7.9906006 24.07843l18.371643 10.472748l-18.371643 10.472748l-7.9906006 24.07843l-7.9906006 -24.07843z" fill-rule="evenodd"/><path stroke="#ffffff" stroke-width="1.0" stroke-linejoin="round" stroke-linecap="butt" d="m548.70593 418.09622l18.371582 -10.472748l7.9906006 -24.07843l7.9906006 24.07843l18.371643 10.472748l-18.371643 10.472748l-7.9906006 24.07843l-7.9906006 -24.07843z" fill-rule="evenodd"/><path fill="#ffffff" d="m410.43976 682.8739l18.371582 -10.472778l7.9906006 -24.07843l7.990631 24.07843l18.371582 10.472778l-18.371582 10.472778l-7.990631 24.07843l-7.9906006 -24.07843z" fill-rule="evenodd"/><path stroke="#ffffff" stroke-width="1.0" stroke-linejoin="round" stroke-linecap="butt" d="m410.43976 682.8739l18.371582 -10.472778l7.9906006 -24.07843l7.990631 24.07843l18.371582 10.472778l-18.371582 10.472778l-7.990631 24.07843l-7.9906006 -24.07843z" fill-rule="evenodd"/><path fill="#ffffff" d="m247.94182 600.5066l18.371597 -10.472778l7.9906006 -24.07843l7.9906006 24.07843l18.371613 10.472778l-18.371613 10.472717l-7.9906006 24.07843l-7.9906006 -24.07843z" fill-rule="evenodd"/><path stroke="#ffffff" stroke-width="1.0" stroke-linejoin="round" stroke-linecap="butt" d="m247.94182 600.5066l18.371597 -10.472778l7.9906006 -24.07843l7.9906006 24.07843l18.371613 10.472778l-18.371613 10.472717l-7.9906006 24.07843l-7.9906006 -24.07843z" fill-rule="evenodd"/><path fill="#ffffff" d="m232.86179 436.83554l18.371613 -10.472748l7.9906006 -24.07843l7.9906006 24.07843l18.371613 10.472748l-18.371613 10.472748l-7.9906006 24.07843l-7.9906006 -24.07843z" fill-rule="evenodd"/><path stroke="#ffffff" stroke-width="1.0" stroke-linejoin="round" stroke-linecap="butt" d="m232.86179 436.83554l18.371613 -10.472748l7.9906006 -24.07843l7.9906006 24.07843l18.371613 10.472748l-18.371613 10.472748l-7.9906006 24.07843l-7.9906006 -24.07843z" fill-rule="evenodd"/><path fill="#ffffff" d="m563.48047 592.4754l18.371643 -10.472778l7.9906006 -24.07843l7.9906006 24.07843l18.371582 10.472778l-18.371582 10.472717l-7.9906006 24.07843l-7.9906006 -24.07843z" fill-rule="evenodd"/><path stroke="#ffffff" stroke-width="1.0" stroke-linejoin="round" stroke-linecap="butt" d="m563.48047 592.4754l18.371643 -10.472778l7.9906006 -24.07843l7.9906006 24.07843l18.371582 10.472778l-18.371582 10.472717l-7.9906006 24.07843l-7.9906006 -24.07843z" fill-rule="evenodd"/><path fill="#ffffff" d="m96.24475 701.74725l18.371597 -10.472717l7.990608 -24.07843l7.990608 24.07843l18.371597 10.472717l-18.371597 10.472778l-7.990608 24.07843l-7.990608 -24.07843z" fill-rule="evenodd"/><path stroke="#ffffff" stroke-width="1.0" stroke-linejoin="round" stroke-linecap="butt" d="m96.24475 701.74725l18.371597 -10.472717l7.990608 -24.07843l7.990608 24.07843l18.371597 10.472717l-18.371597 10.472778l-7.990608 24.07843l-7.990608 -24.07843z" fill-rule="evenodd"/><path fill="#000000" fill-opacity="0.0" d="m293.9344 393.43045l70.99213 -46.740173" fill-rule="evenodd"/><path stroke="#ffffff" stroke-width="8.0" stroke-linejoin="round" stroke-linecap="butt" d="m293.9344 393.43045l70.99213 -46.740173" fill-rule="evenodd"/><path fill="#000000" fill-opacity="0.0" d="m470.51443 343.2257l64.06302 36.346466" fill-rule="evenodd"/><path stroke="#ffffff" stroke-width="8.0" stroke-linejoin="round" stroke-linecap="butt" d="m470.51443 343.2257l64.06302 36.346466" fill-rule="evenodd"/><path fill="#000000" fill-opacity="0.0" d="m587.3858 462.40158l4.913391 73.60629" fill-rule="evenodd"/><path stroke="#ffffff" stroke-width="8.0" stroke-linejoin="round" stroke-linecap="butt" d="m587.3858 462.40158l4.913391 73.60629" fill-rule="evenodd"/><path fill="#000000" fill-opacity="0.0" d="m156.19423 678.16534l91.74803 -53.66931" fill-rule="evenodd"/><path stroke="#ffffff" stroke-width="8.0" stroke-linejoin="round" stroke-linecap="butt" d="m156.19423 678.16534l91.74803 -53.66931" fill-rule="evenodd"/><path fill="#000000" fill-opacity="0.0" d="m257.58005 488.0118l4.346466 62.299225" fill-rule="evenodd"/><path stroke="#ffffff" stroke-width="8.0" stroke-linejoin="round" stroke-linecap="butt" d="m257.58005 488.0118l4.346466 62.299225" fill-rule="evenodd"/><path fill="#000000" fill-opacity="0.0" d="m312.979 630.6011l73.5748 32.37793" fill-rule="evenodd"/><path stroke="#ffffff" stroke-width="8.0" stroke-linejoin="round" stroke-linecap="butt" d="m312.979 630.6011l73.5748 32.37793" fill-rule="evenodd"/><path fill="#000000" fill-opacity="0.0" d="m471.16415 674.8739l85.25986 -47.08661" fill-rule="evenodd"/><path stroke="#ffffff" stroke-width="8.0" stroke-linejoin="round" stroke-linecap="butt" d="m471.16415 674.8739l85.25986 -47.08661" fill-rule="evenodd"/><path fill="#ffffff" d="m716.4993 308.67377l18.371643 -10.472748l7.9906006 -24.07843l7.9906006 24.07843l18.371582 10.472748l-18.371582 10.472748l-7.9906006 24.07843l-7.9906006 -24.07843z" fill-rule="evenodd"/><path stroke="#ffffff" stroke-width="1.0" stroke-linejoin="round" stroke-linecap="butt" d="m716.4993 308.67377l18.371643 -10.472748l7.9906006 -24.07843l7.9906006 24.07843l18.371582 10.472748l-18.371582 10.472748l-7.9906006 24.07843l-7.9906006 -24.07843z" fill-rule="evenodd"/><path fill="#ffffff" d="m890.3891 420.8339l18.371582 -10.472778l7.9906616 -24.07843l7.9906006 24.07843l18.371582 10.472778l-18.371582 10.472748l-7.9906006 24.07843l-7.9906616 -24.07843z" fill-rule="evenodd"/><path stroke="#ffffff" stroke-width="1.0" stroke-linejoin="round" stroke-linecap="butt" d="m890.3891 420.8339l18.371582 -10.472778l7.9906616 -24.07843l7.9906006 24.07843l18.371582 10.472778l-18.371582 10.472748l-7.9906006 24.07843l-7.9906616 -24.07843z" fill-rule="evenodd"/><path fill="#ffffff" d="m900.92194 593.55304l18.371582 -10.472778l7.9906006 -24.07843l7.9906006 24.07843l18.371582 10.472778l-18.371582 10.472778l-7.9906006 24.07843l-7.9906006 -24.07843z" fill-rule="evenodd"/><path stroke="#ffffff" stroke-width="1.0" stroke-linejoin="round" stroke-linecap="butt" d="m900.92194 593.55304l18.371582 -10.472778l7.9906006 -24.07843l7.9906006 24.07843l18.371582 10.472778l-18.371582 10.472778l-7.9906006 24.07843l-7.9906006 -24.07843z" fill-rule="evenodd"/><path fill="#ffffff" d="m1075.4469 319.72888l18.371582 -10.472748l7.9906006 -24.07843l7.9906006 24.07843l18.371582 10.472748l-18.371582 10.472778l-7.9906006 24.0784l-7.9906006 -24.0784z" fill-rule="evenodd"/><path stroke="#ffffff" stroke-width="1.0" stroke-linejoin="round" stroke-linecap="butt" d="m1075.4469 319.72888l18.371582 -10.472748l7.9906006 -24.07843l7.9906006 24.07843l18.371582 10.472748l-18.371582 10.472778l-7.9906006 24.0784l-7.9906006 -24.0784z" fill-rule="evenodd"/><path fill="#ffffff" d="m1097.8301 112.39294l18.371582 -10.472755l7.9906006 -24.07843l7.9906006 24.07843l18.371582 10.472755l-18.371582 10.472748l-7.9906006 24.078438l-7.9906006 -24.078438z" fill-rule="evenodd"/><path stroke="#ffffff" stroke-width="1.0" stroke-linejoin="round" stroke-linecap="butt" d="m1097.8301 112.39294l18.371582 -10.472755l7.9906006 -24.07843l7.9906006 24.07843l18.371582 10.472755l-18.371582 10.472748l-7.9906006 24.078438l-7.9906006 -24.078438z" fill-rule="evenodd"/><path fill="#ffffff" d="m1242.8904 406.1226l18.371582 -10.472748l7.9907227 -24.07843l7.9906006 24.07843l18.371582 10.472748l-18.371582 10.472748l-7.9906006 24.07843l-7.9907227 -24.07843z" fill-rule="evenodd"/><path stroke="#ffffff" stroke-width="1.0" stroke-linejoin="round" stroke-linecap="butt" d="m1242.8904 406.1226l18.371582 -10.472748l7.9907227 -24.07843l7.9906006 24.07843l18.371582 10.472748l-18.371582 10.472748l-7.9906006 24.07843l-7.9907227 -24.07843z" fill-rule="evenodd"/><path fill="#000000" fill-opacity="0.0" d="m614.6667 378.82153l102.14172 -51.055115" fill-rule="evenodd"/><path stroke="#ffffff" stroke-width="8.0" stroke-linejoin="round" stroke-linecap="butt" d="m614.6667 378.82153l102.14172 -51.055115" fill-rule="evenodd"/><path fill="#000000" fill-opacity="0.0" d="m785.3018 313.39896l111.71655 81.38583" fill-rule="evenodd"/><path stroke="#ffffff" stroke-width="8.0" stroke-linejoin="round" stroke-linecap="butt" d="m785.3018 313.39896l111.71655 81.38583" fill-rule="evenodd"/><path fill="#000000" fill-opacity="0.0" d="m928.874 544.6903l-3.1810913 -74.99216" fill-rule="evenodd"/><path stroke="#ffffff" stroke-width="8.0" stroke-linejoin="round" stroke-linecap="butt" d="m928.874 544.6903l-3.1810913 -74.99216" fill-rule="evenodd"/><path fill="#000000" fill-opacity="0.0" d="m941.5958 397.95013l124.47241 -57.448822" fill-rule="evenodd"/><path stroke="#ffffff" stroke-width="8.0" stroke-linejoin="round" stroke-linecap="butt" d="m941.5958 397.95013l124.47241 -57.448822" fill-rule="evenodd"/><path fill="#000000" fill-opacity="0.0" d="m1109.0394 163.42258l-7.968506 102.14172" fill-rule="evenodd"/><path stroke="#ffffff" stroke-width="8.0" stroke-linejoin="round" stroke-linecap="butt" d="m1109.0394 163.42258l-7.968506 102.14172" fill-rule="evenodd"/><path fill="#000000" fill-opacity="0.0" d="m1140.9081 335.69553l105.322876 47.874023" fill-rule="evenodd"/><path stroke="#ffffff" stroke-width="8.0" stroke-linejoin="round" stroke-linecap="butt" d="m1140.9081 335.69553l105.322876 47.874023" fill-rule="evenodd"/><path fill="#000000" fill-opacity="0.0" d="m1133.0394 171.42258l-7.968506 102.14172" fill-rule="evenodd"/><path stroke="#ffffff" stroke-width="8.0" stroke-linejoin="round" stroke-linecap="butt" d="m1133.0394 171.42258l-7.968506 102.14172" fill-rule="evenodd"/><path fill="#000000" fill-opacity="0.0" d="m447.9685 359.21997l79.433044 45.7323" fill-rule="evenodd"/><path stroke="#ffffff" stroke-width="8.0" stroke-linejoin="round" stroke-linecap="butt" d="m447.9685 359.21997l79.433044 45.7323" fill-rule="evenodd"/><path fill="#000000" fill-opacity="0.0" d="m463.16415 648.3227l85.25986 -47.08661" fill-rule="evenodd"/><path stroke="#ffffff" stroke-width="8.0" stroke-linejoin="round" stroke-linecap="butt" d="m463.16415 648.3227l85.25986 -47.08661" fill-rule="evenodd"/><path fill="#000000" fill-opacity="0.0" d="m278.53543 465.72308l6.9606323 94.17322" fill-rule="evenodd"/><path stroke="#ffffff" stroke-width="8.0" stroke-linejoin="round" stroke-linecap="butt" d="m278.53543 465.72308l6.9606323 94.17322" fill-rule="evenodd"/></g></svg>