<svg version="1.1" viewBox="0.0 0.0 904.01312335958 840.3070866141733" fill="none" stroke="none" stroke-linecap="square" stroke-miterlimit="10" xmlns:xlink="http://www.w3.org/1999/xlink" xmlns="http://www.w3.org/2000/svg"><clipPath id="p.0"><path d="m0 0l904.0131 0l0 840.30707l-904.0131 0l0 -840.30707z" clip-rule="nonzero"/></clipPath><g clip-path="url(#p.0)"><path fill="#000000" fill-opacity="0.0" d="m0 0l904.0131 0l0 840.30707l-904.0131 0z" fill-rule="evenodd"/><path fill="#ffffff" d="m542.68756 548.3097l-18.371582 10.472778l-7.9906006 24.07843l-7.990631 -24.07843l-18.371582 -10.472778l18.371582 -10.472717l7.990631 -24.07843l7.9906006 24.07843z" fill-rule="evenodd"/><path stroke="#ffffff" stroke-width="1.0" stroke-linejoin="round" stroke-linecap="butt" d="m542.68756 548.3097l-18.371582 10.472778l-7.9906006 24.07843l-7.990631 -24.07843l-18.371582 -10.472778l18.371582 -10.472717l7.990631 -24.07843l7.9906006 24.07843z" fill-rule="evenodd"/><path fill="#ffffff" d="m380.18964 457.94238l-18.371613 10.472748l-7.9906006 24.07843l-7.9906006 -24.07843l-18.371613 -10.472748l18.371613 -10.472748l7.9906006 -24.07843l7.9906006 24.07843z" fill-rule="evenodd"/><path stroke="#ffffff" stroke-width="1.0" stroke-linejoin="round" stroke-linecap="butt" d="m380.18964 457.94238l-18.371613 10.472748l-7.9906006 24.07843l-7.9906006 -24.07843l-18.371613 -10.472748l18.371613 -10.472748l7.9906006 -24.07843l7.9906006 24.07843z" fill-rule="evenodd"/><path fill="#ffffff" d="m518.4558 193.1647l-18.371582 10.472748l-7.9906006 24.07843l-7.990631 -24.07843l-18.371582 -10.472748l18.371582 -10.472748l7.990631 -24.07843l7.9906006 24.07843z" fill-rule="evenodd"/><path stroke="#ffffff" stroke-width="1.0" stroke-linejoin="round" stroke-linecap="butt" d="m518.4558 193.1647l-18.371582 10.472748l-7.9906006 24.07843l-7.990631 -24.07843l-18.371582 -10.472748l18.371582 -10.472748l7.990631 -24.07843l7.9906006 24.07843z" fill-rule="evenodd"/><path fill="#ffffff" d="m680.95374 275.53204l-18.371582 10.472748l-7.9906006 24.07843l-7.9906006 -24.07843l-18.371643 -10.472748l18.371643 -10.472748l7.9906006 -24.078445l7.9906006 24.078445z" fill-rule="evenodd"/><path stroke="#ffffff" stroke-width="1.0" stroke-linejoin="round" stroke-linecap="butt" d="m680.95374 275.53204l-18.371582 10.472748l-7.9906006 24.07843l-7.9906006 -24.07843l-18.371643 -10.472748l18.371643 -10.472748l7.9906006 -24.078445l7.9906006 24.078445z" fill-rule="evenodd"/><path fill="#ffffff" d="m696.03375 439.20306l-18.371582 10.472748l-7.9906006 24.07843l-7.9906006 -24.07843l-18.371582 -10.472748l18.371582 -10.472748l7.9906006 -24.07843l7.9906006 24.07843z" fill-rule="evenodd"/><path stroke="#ffffff" stroke-width="1.0" stroke-linejoin="round" stroke-linecap="butt" d="m696.03375 439.20306l-18.371582 10.472748l-7.9906006 24.07843l-7.9906006 -24.07843l-18.371582 -10.472748l18.371582 -10.472748l7.9906006 -24.07843l7.9906006 24.07843z" fill-rule="evenodd"/><path fill="#ffffff" d="m365.41507 283.5632l-18.371582 10.472778l-7.990631 24.0784l-7.9906006 -24.0784l-18.371582 -10.472778l18.371582 -10.472748l7.9906006 -24.078415l7.990631 24.078415z" fill-rule="evenodd"/><path stroke="#ffffff" stroke-width="1.0" stroke-linejoin="round" stroke-linecap="butt" d="m365.41507 283.5632l-18.371582 10.472778l-7.990631 24.0784l-7.9906006 -24.0784l-18.371582 -10.472778l18.371582 -10.472748l7.9906006 -24.078415l7.990631 24.078415z" fill-rule="evenodd"/><path fill="#ffffff" d="m212.87993 527.04474l-18.371613 10.472778l-7.9906006 24.07843l-7.9906006 -24.07843l-18.371597 -10.472778l18.371597 -10.472778l7.9906006 -24.0784l7.9906006 24.0784z" fill-rule="evenodd"/><path stroke="#ffffff" stroke-width="1.0" stroke-linejoin="round" stroke-linecap="butt" d="m212.87993 527.04474l-18.371613 10.472778l-7.9906006 24.07843l-7.9906006 -24.07843l-18.371597 -10.472778l18.371597 -10.472778l7.9906006 -24.0784l7.9906006 24.0784z" fill-rule="evenodd"/><path fill="#ffffff" d="m92.96916 403.60117l-18.371597 10.472748l-7.990608 24.07843l-7.9906044 -24.07843l-18.371601 -10.472748l18.371601 -10.472748l7.9906044 -24.07843l7.990608 24.07843z" fill-rule="evenodd"/><path stroke="#ffffff" stroke-width="1.0" stroke-linejoin="round" stroke-linecap="butt" d="m92.96916 403.60117l-18.371597 10.472748l-7.990608 24.07843l-7.9906044 -24.07843l-18.371601 -10.472748l18.371601 -10.472748l7.9906044 -24.07843l7.990608 24.07843z" fill-rule="evenodd"/><path fill="#ffffff" d="m185.94029 262.26785l-18.371597 10.472748l-7.990616 24.07843l-7.9906006 -24.07843l-18.371597 -10.472748l18.371597 -10.472763l7.9906006 -24.07843l7.990616 24.07843z" fill-rule="evenodd"/><path stroke="#ffffff" stroke-width="1.0" stroke-linejoin="round" stroke-linecap="butt" d="m185.94029 262.26785l-18.371597 10.472748l-7.990616 24.07843l-7.9906006 -24.07843l-18.371597 -10.472748l18.371597 -10.472763l7.9906006 -24.07843l7.990616 24.07843z" fill-rule="evenodd"/><path fill="#ffffff" d="m542.68756 754.7139l-18.371582 10.472717l-7.9906006 24.07843l-7.990631 -24.07843l-18.371582 -10.472717l18.371582 -10.472778l7.990631 -24.07843l7.9906006 24.07843z" fill-rule="evenodd"/><path stroke="#ffffff" stroke-width="1.0" stroke-linejoin="round" stroke-linecap="butt" d="m542.68756 754.7139l-18.371582 10.472717l-7.9906006 24.07843l-7.990631 -24.07843l-18.371582 -10.472717l18.371582 -10.472778l7.990631 -24.07843l7.9906006 24.07843z" fill-rule="evenodd"/><path fill="#ffffff" d="m856.6508 166.29134l-18.371582 10.472763l-7.9906006 24.078415l-7.9906006 -24.078415l-18.371643 -10.472763l18.371643 -10.472748l7.9906006 -24.07843l7.9906006 24.07843z" fill-rule="evenodd"/><path stroke="#ffffff" stroke-width="1.0" stroke-linejoin="round" stroke-linecap="butt" d="m856.6508 166.29134l-18.371582 10.472763l-7.9906006 24.078415l-7.9906006 -24.078415l-18.371643 -10.472763l18.371643 -10.472748l7.9906006 -24.07843l7.9906006 24.07843z" fill-rule="evenodd"/><path fill="#000000" fill-opacity="0.0" d="m634.9612 482.60815l-70.99213 46.740173" fill-rule="evenodd"/><path stroke="#ffffff" stroke-width="8.0" stroke-linejoin="round" stroke-linecap="butt" d="m634.9612 482.60815l-70.99213 46.740173" fill-rule="evenodd"/><path fill="#000000" fill-opacity="0.0" d="m458.38113 532.81287l-64.06299 -36.346436" fill-rule="evenodd"/><path stroke="#ffffff" stroke-width="8.0" stroke-linejoin="round" stroke-linecap="butt" d="m458.38113 532.81287l-64.06299 -36.346436" fill-rule="evenodd"/><path fill="#000000" fill-opacity="0.0" d="m531.746 697.92834l0 -81.35431" fill-rule="evenodd"/><path stroke="#ffffff" stroke-width="8.0" stroke-linejoin="round" stroke-linecap="butt" d="m531.746 697.92834l0 -81.35431" fill-rule="evenodd"/><path fill="#000000" fill-opacity="0.0" d="m499.74597 697.92834l0 -81.35431" fill-rule="evenodd"/><path stroke="#ffffff" stroke-width="8.0" stroke-linejoin="round" stroke-linecap="butt" d="m499.74597 697.92834l0 -81.35431" fill-rule="evenodd"/><path fill="#000000" fill-opacity="0.0" d="m345.8562 396.0491l-1.7322998 -45.007874" fill-rule="evenodd"/><path stroke="#ffffff" stroke-width="8.0" stroke-linejoin="round" stroke-linecap="butt" d="m345.8562 396.0491l-1.7322998 -45.007874" fill-rule="evenodd"/><path fill="#000000" fill-opacity="0.0" d="m318.15805 420.2853l-5.196869 -86.55118" fill-rule="evenodd"/><path stroke="#ffffff" stroke-width="8.0" stroke-linejoin="round" stroke-linecap="butt" d="m318.15805 420.2853l-5.196869 -86.55118" fill-rule="evenodd"/><path fill="#000000" fill-opacity="0.0" d="m795.95856 560.51105l-90.01575 -88.28348" fill-rule="evenodd"/><path stroke="#ffffff" stroke-width="8.0" stroke-linejoin="round" stroke-linecap="butt" d="m795.95856 560.51105l-90.01575 -88.28348" fill-rule="evenodd"/><path fill="#000000" fill-opacity="0.0" d="m795.95856 202.15933l-91.74805 53.669296" fill-rule="evenodd"/><path stroke="#ffffff" stroke-width="8.0" stroke-linejoin="round" stroke-linecap="butt" d="m795.95856 202.15933l-91.74805 53.669296" fill-rule="evenodd"/><path fill="#000000" fill-opacity="0.0" d="m782.10815 178.57928l-83.08661 48.472443" fill-rule="evenodd"/><path stroke="#ffffff" stroke-width="8.0" stroke-linejoin="round" stroke-linecap="butt" d="m782.10815 178.57928l-83.08661 48.472443" fill-rule="evenodd"/><path fill="#000000" fill-opacity="0.0" d="m671.3155 388.0268l-3.4645386 -49.102356" fill-rule="evenodd"/><path stroke="#ffffff" stroke-width="8.0" stroke-linejoin="round" stroke-linecap="butt" d="m671.3155 388.0268l-3.4645386 -49.102356" fill-rule="evenodd"/><path fill="#000000" fill-opacity="0.0" d="m615.91656 245.43756l-64.06299 -29.417328" fill-rule="evenodd"/><path stroke="#ffffff" stroke-width="8.0" stroke-linejoin="round" stroke-linecap="butt" d="m615.91656 245.43756l-64.06299 -29.417328" fill-rule="evenodd"/><path fill="#000000" fill-opacity="0.0" d="m457.7314 201.1647l-85.25986 47.086624" fill-rule="evenodd"/><path stroke="#ffffff" stroke-width="8.0" stroke-linejoin="round" stroke-linecap="butt" d="m457.7314 201.1647l-85.25986 47.086624" fill-rule="evenodd"/><path fill="#000000" fill-opacity="0.0" d="m491.27353 135.7184l-3.464569 -96.944885" fill-rule="evenodd"/><path stroke="#ffffff" stroke-width="8.0" stroke-linejoin="round" stroke-linecap="butt" d="m491.27353 135.7184l-3.464569 -96.944885" fill-rule="evenodd"/><path fill="#000000" fill-opacity="0.0" d="m311.23154 486.0701l-69.25986 31.149628" fill-rule="evenodd"/><path stroke="#ffffff" stroke-width="8.0" stroke-linejoin="round" stroke-linecap="butt" d="m311.23154 486.0701l-69.25986 31.149628" fill-rule="evenodd"/><path fill="#000000" fill-opacity="0.0" d="m134.6541 505.1121l-45.007874 -43.275574" fill-rule="evenodd"/><path stroke="#ffffff" stroke-width="8.0" stroke-linejoin="round" stroke-linecap="butt" d="m134.6541 505.1121l-45.007874 -43.275574" fill-rule="evenodd"/><path fill="#000000" fill-opacity="0.0" d="m167.5465 584.74725l-50.204735 102.14172" fill-rule="evenodd"/><path stroke="#ffffff" stroke-width="8.0" stroke-linejoin="round" stroke-linecap="butt" d="m167.5465 584.74725l-50.204735 102.14172" fill-rule="evenodd"/><path fill="#000000" fill-opacity="0.0" d="m283.53336 264.48218l-69.25984 -20.7874" fill-rule="evenodd"/><path stroke="#ffffff" stroke-width="8.0" stroke-linejoin="round" stroke-linecap="butt" d="m283.53336 264.48218l-69.25984 -20.7874" fill-rule="evenodd"/><path fill="#000000" fill-opacity="0.0" d="m117.34176 274.3247l-47.27559 85.51181" fill-rule="evenodd"/><path stroke="#ffffff" stroke-width="8.0" stroke-linejoin="round" stroke-linecap="butt" d="m117.34176 274.3247l-47.27559 85.51181" fill-rule="evenodd"/><path fill="#000000" fill-opacity="0.0" d="m135.78796 296.6895l-47.275597 85.51181" fill-rule="evenodd"/><path stroke="#ffffff" stroke-width="8.0" stroke-linejoin="round" stroke-linecap="butt" d="m135.78796 296.6895l-47.275597 85.51181" fill-rule="evenodd"/></g></svg>