<svg version="1.1" viewBox="0.0 0.0 904.01312335958 840.3070866141733" fill="none" stroke="none" stroke-linecap="square" stroke-miterlimit="10" xmlns:xlink="http://www.w3.org/1999/xlink" xmlns="http://www.w3.org/2000/svg"><clipPath id="p.0"><path d="m0 0l904.0131 0l0 840.30707l-904.0131 0l0 -840.30707z" clip-rule="nonzero"/></clipPath><g clip-path="url(#p.0)"><path fill="#000000" fill-opacity="0.0" d="m0 0l904.0131 0l0 840.30707l-904.0131 0z" fill-rule="evenodd"/><path fill="#ffffff" d="m362.175 128.88649l-18.371613 10.472748l-7.9906006 24.07843l-7.9906006 -24.07843l-18.371613 -10.472748l18.371613 -10.472755l7.9906006 -24.078423l7.9906006 24.078423z" fill-rule="evenodd"/><path fill="#ffffff" d="m479.99893 267.31586l-38.23575 22.807129l-16.630402 52.43698l-16.630371 -52.43698l-38.23578 -22.807129l38.23578 -22.807098l16.630371 -52.43698l16.630402 52.43698z" fill-rule="evenodd"/><path fill="#ffffff" d="m515.9225 623.8609l-18.371613 10.472717l-7.9906006 24.07843l-7.9906006 -24.07843l-18.371613 -10.472717l18.371613 -10.472778l7.9906006 -24.07843l7.9906006 24.07843z" fill-rule="evenodd"/><path fill="#ffffff" d="m280.94873 750.28345l-18.371613 10.472778l-7.9906006 24.07843l-7.990616 -24.07843l-18.371597 -10.472778l18.371597 -10.472717l7.990616 -24.07843l7.9906006 24.07843z" fill-rule="evenodd"/><path fill="#ffffff" d="m390.6787 545.2056l-38.23575 22.807129l-16.630402 52.43695l-16.630371 -52.43695l-38.23575 -22.807129l38.23575 -22.807129l16.630371 -52.43695l16.630402 52.43695z" fill-rule="evenodd"/><path fill="#ffffff" d="m704.8598 107.594086l-38.235718 22.807114l-16.630432 52.43698l-16.630371 -52.43698l-38.235718 -22.807114l38.235718 -22.807121l16.630371 -52.436974l16.630432 52.436974z" fill-rule="evenodd"/><path fill="#ffffff" d="m697.0878 488.97375l-18.371582 10.472748l-7.9906006 24.07846l-7.9906616 -24.07846l-18.371582 -10.472748l18.371582 -10.472748l7.9906616 -24.07843l7.9906006 24.07843z" fill-rule="evenodd"/><path fill="#ffffff" d="m568.64685 379.88715l-18.371582 10.472748l-7.9906006 24.07843l-7.9906006 -24.07843l-18.371582 -10.472748l18.371582 -10.472748l7.9906006 -24.07843l7.9906006 24.07843z" fill-rule="evenodd"/><path fill="#ffffff" d="m757.5865 267.31497l-18.371582 10.472748l-7.9906006 24.07843l-7.9906006 -24.07843l-18.371582 -10.472748l18.371582 -10.472778l7.9906006 -24.078415l7.9906006 24.078415z" fill-rule="evenodd"/></g></svg>