<svg version="1.1" viewBox="0.0 0.0 1355.0787401574803 808.0682414698163" fill="none" stroke="none" stroke-linecap="square" stroke-miterlimit="10" xmlns:xlink="http://www.w3.org/1999/xlink" xmlns="http://www.w3.org/2000/svg"><clipPath id="p.0"><path d="m0 0l1355.0787 0l0 808.06824l-1355.0787 0l0 -808.06824z" clip-rule="nonzero"/></clipPath><g clip-path="url(#p.0)"><path fill="#000000" fill-opacity="0.0" d="m0 0l1355.0787 0l0 808.06824l-1355.0787 0z" fill-rule="evenodd"/><path fill="#ffffff" d="m386.208 486.41132l18.371613 10.472748l7.9906006 24.0784l7.9906006 -24.0784l18.371582 -10.472748l-18.371582 -10.472748l-7.9906006 -24.07843l-7.9906006 24.07843z" fill-rule="evenodd"/><path stroke="#ffffff" stroke-width="1.0" stroke-linejoin="round" stroke-linecap="butt" d="m386.208 486.41132l18.371613 10.472748l7.9906006 24.0784l7.9906006 -24.0784l18.371582 -10.472748l-18.371582 -10.472748l-7.9906006 -24.07843l-7.9906006 24.07843z" fill-rule="evenodd"/><path fill="#ffffff" d="m548.70593 396.04398l18.371582 10.472748l7.9906006 24.07843l7.9906006 -24.07843l18.371643 -10.472748l-18.371643 -10.472748l-7.9906006 -24.07843l-7.9906006 24.07843z" fill-rule="evenodd"/><path stroke="#ffffff" stroke-width="1.0" stroke-linejoin="round" stroke-linecap="butt" d="m548.70593 396.04398l18.371582 10.472748l7.9906006 24.07843l7.9906006 -24.07843l18.371643 -10.472748l-18.371643 -10.472748l-7.9906006 -24.07843l-7.9906006 24.07843z" fill-rule="evenodd"/><path fill="#ffffff" d="m410.43976 131.2663l18.371582 10.472763l7.9906006 24.07843l7.990631 -24.07843l18.371582 -10.472763l-18.371582 -10.472748l-7.990631 -24.07843l-7.9906006 24.07843z" fill-rule="evenodd"/><path stroke="#ffffff" stroke-width="1.0" stroke-linejoin="round" stroke-linecap="butt" d="m410.43976 131.2663l18.371582 10.472763l7.9906006 24.07843l7.990631 -24.07843l18.371582 -10.472763l-18.371582 -10.472748l-7.990631 -24.07843l-7.9906006 24.07843z" fill-rule="evenodd"/><path fill="#ffffff" d="m247.94182 213.63364l18.371597 10.472748l7.9906006 24.07843l7.9906006 -24.07843l18.371613 -10.472748l-18.371613 -10.472763l-7.9906006 -24.078415l-7.9906006 24.078415z" fill-rule="evenodd"/><path stroke="#ffffff" stroke-width="1.0" stroke-linejoin="round" stroke-linecap="butt" d="m247.94182 213.63364l18.371597 10.472748l7.9906006 24.07843l7.9906006 -24.07843l18.371613 -10.472748l-18.371613 -10.472763l-7.9906006 -24.078415l-7.9906006 24.078415z" fill-rule="evenodd"/><path fill="#ffffff" d="m232.86179 377.30466l18.371613 10.472748l7.9906006 24.07843l7.9906006 -24.07843l18.371613 -10.472748l-18.371613 -10.472748l-7.9906006 -24.07843l-7.9906006 24.07843z" fill-rule="evenodd"/><path stroke="#ffffff" stroke-width="1.0" stroke-linejoin="round" stroke-linecap="butt" d="m232.86179 377.30466l18.371613 10.472748l7.9906006 24.07843l7.9906006 -24.07843l18.371613 -10.472748l-18.371613 -10.472748l-7.9906006 -24.07843l-7.9906006 24.07843z" fill-rule="evenodd"/><path fill="#ffffff" d="m563.48047 221.66481l18.371643 10.472748l7.9906006 24.078445l7.9906006 -24.078445l18.371582 -10.472748l-18.371582 -10.472748l-7.9906006 -24.07843l-7.9906006 24.07843z" fill-rule="evenodd"/><path stroke="#ffffff" stroke-width="1.0" stroke-linejoin="round" stroke-linecap="butt" d="m563.48047 221.66481l18.371643 10.472748l7.9906006 24.078445l7.9906006 -24.078445l18.371582 -10.472748l-18.371582 -10.472748l-7.9906006 -24.07843l-7.9906006 24.07843z" fill-rule="evenodd"/><path fill="#ffffff" d="m96.24475 112.39294l18.371597 10.472748l7.990608 24.078438l7.990608 -24.078438l18.371597 -10.472748l-18.371597 -10.472755l-7.990608 -24.07843l-7.990608 24.07843z" fill-rule="evenodd"/><path stroke="#ffffff" stroke-width="1.0" stroke-linejoin="round" stroke-linecap="butt" d="m96.24475 112.39294l18.371597 10.472748l7.990608 24.078438l7.990608 -24.078438l18.371597 -10.472748l-18.371597 -10.472755l-7.990608 -24.07843l-7.990608 24.07843z" fill-rule="evenodd"/><path fill="#000000" fill-opacity="0.0" d="m293.9344 420.70975l70.99213 46.740173" fill-rule="evenodd"/><path stroke="#ffffff" stroke-width="8.0" stroke-linejoin="round" stroke-linecap="butt" d="m293.9344 420.70975l70.99213 46.740173" fill-rule="evenodd"/><path fill="#000000" fill-opacity="0.0" d="m470.51443 470.9145l64.06302 -36.346466" fill-rule="evenodd"/><path stroke="#ffffff" stroke-width="8.0" stroke-linejoin="round" stroke-linecap="butt" d="m470.51443 470.9145l64.06302 -36.346466" fill-rule="evenodd"/><path fill="#000000" fill-opacity="0.0" d="m587.3858 351.73862l4.913391 -73.60629" fill-rule="evenodd"/><path stroke="#ffffff" stroke-width="8.0" stroke-linejoin="round" stroke-linecap="butt" d="m587.3858 351.73862l4.913391 -73.60629" fill-rule="evenodd"/><path fill="#000000" fill-opacity="0.0" d="m156.19423 135.97485l91.74803 53.66928" fill-rule="evenodd"/><path stroke="#ffffff" stroke-width="8.0" stroke-linejoin="round" stroke-linecap="butt" d="m156.19423 135.97485l91.74803 53.66928" fill-rule="evenodd"/><path fill="#000000" fill-opacity="0.0" d="m257.58005 326.1284l4.346466 -62.299225" fill-rule="evenodd"/><path stroke="#ffffff" stroke-width="8.0" stroke-linejoin="round" stroke-linecap="butt" d="m257.58005 326.1284l4.346466 -62.299225" fill-rule="evenodd"/><path fill="#000000" fill-opacity="0.0" d="m312.979 183.53915l73.5748 -32.37796" fill-rule="evenodd"/><path stroke="#ffffff" stroke-width="8.0" stroke-linejoin="round" stroke-linecap="butt" d="m312.979 183.53915l73.5748 -32.37796" fill-rule="evenodd"/><path fill="#000000" fill-opacity="0.0" d="m471.16415 139.2663l85.25986 47.086624" fill-rule="evenodd"/><path stroke="#ffffff" stroke-width="8.0" stroke-linejoin="round" stroke-linecap="butt" d="m471.16415 139.2663l85.25986 47.086624" fill-rule="evenodd"/><path fill="#ffffff" d="m716.4993 505.46643l18.371643 10.472778l7.9906006 24.07837l7.9906006 -24.07837l18.371582 -10.472778l-18.371582 -10.472748l-7.9906006 -24.07843l-7.9906006 24.07843z" fill-rule="evenodd"/><path stroke="#ffffff" stroke-width="1.0" stroke-linejoin="round" stroke-linecap="butt" d="m716.4993 505.46643l18.371643 10.472778l7.9906006 24.07837l7.9906006 -24.07837l18.371582 -10.472778l-18.371582 -10.472748l-7.9906006 -24.07843l-7.9906006 24.07843z" fill-rule="evenodd"/><path fill="#ffffff" d="m890.3891 393.30634l18.371582 10.472748l7.9906616 24.07843l7.9906006 -24.07843l18.371582 -10.472748l-18.371582 -10.472778l-7.9906006 -24.07843l-7.9906616 24.07843z" fill-rule="evenodd"/><path stroke="#ffffff" stroke-width="1.0" stroke-linejoin="round" stroke-linecap="butt" d="m890.3891 393.30634l18.371582 10.472748l7.9906616 24.07843l7.9906006 -24.07843l18.371582 -10.472748l-18.371582 -10.472778l-7.9906006 -24.07843l-7.9906616 24.07843z" fill-rule="evenodd"/><path fill="#ffffff" d="m900.92194 220.58716l18.371582 10.472748l7.9906006 24.07843l7.9906006 -24.07843l18.371582 -10.472748l-18.371582 -10.472748l-7.9906006 -24.07843l-7.9906006 24.07843z" fill-rule="evenodd"/><path stroke="#ffffff" stroke-width="1.0" stroke-linejoin="round" stroke-linecap="butt" d="m900.92194 220.58716l18.371582 10.472748l7.9906006 24.07843l7.9906006 -24.07843l18.371582 -10.472748l-18.371582 -10.472748l-7.9906006 -24.07843l-7.9906006 24.07843z" fill-rule="evenodd"/><path fill="#ffffff" d="m1075.4469 494.41132l18.371582 10.472748l7.9906006 24.0784l7.9906006 -24.0784l18.371582 -10.472748l-18.371582 -10.472748l-7.9906006 -24.07843l-7.9906006 24.07843z" fill-rule="evenodd"/><path stroke="#ffffff" stroke-width="1.0" stroke-linejoin="round" stroke-linecap="butt" d="m1075.4469 494.41132l18.371582 10.472748l7.9906006 24.0784l7.9906006 -24.0784l18.371582 -10.472748l-18.371582 -10.472748l-7.9906006 -24.07843l-7.9906006 24.07843z" fill-rule="evenodd"/><path fill="#ffffff" d="m1097.8301 701.74725l18.371582 10.472778l7.9906006 24.07843l7.9906006 -24.07843l18.371582 -10.472778l-18.371582 -10.472717l-7.9906006 -24.07843l-7.9906006 24.07843z" fill-rule="evenodd"/><path stroke="#ffffff" stroke-width="1.0" stroke-linejoin="round" stroke-linecap="butt" d="m1097.8301 701.74725l18.371582 10.472778l7.9906006 24.07843l7.9906006 -24.07843l18.371582 -10.472778l-18.371582 -10.472717l-7.9906006 -24.07843l-7.9906006 24.07843z" fill-rule="evenodd"/><path fill="#ffffff" d="m1242.8904 408.0176l18.371582 10.472748l7.9907227 24.07843l7.9906006 -24.07843l18.371582 -10.472748l-18.371582 -10.472748l-7.9906006 -24.07843l-7.9907227 24.07843z" fill-rule="evenodd"/><path stroke="#ffffff" stroke-width="1.0" stroke-linejoin="round" stroke-linecap="butt" d="m1242.8904 408.0176l18.371582 10.472748l7.9907227 24.07843l7.9906006 -24.07843l18.371582 -10.472748l-18.371582 -10.472748l-7.9906006 -24.07843l-7.9907227 24.07843z" fill-rule="evenodd"/><path fill="#000000" fill-opacity="0.0" d="m614.6667 435.31866l102.14172 51.055145" fill-rule="evenodd"/><path stroke="#ffffff" stroke-width="8.0" stroke-linejoin="round" stroke-linecap="butt" d="m614.6667 435.31866l102.14172 51.055145" fill-rule="evenodd"/><path fill="#000000" fill-opacity="0.0" d="m785.3018 500.74124l111.71655 -81.3858" fill-rule="evenodd"/><path stroke="#ffffff" stroke-width="8.0" stroke-linejoin="round" stroke-linecap="butt" d="m785.3018 500.74124l111.71655 -81.3858" fill-rule="evenodd"/><path fill="#000000" fill-opacity="0.0" d="m928.874 269.44992l-3.1810913 74.99213" fill-rule="evenodd"/><path stroke="#ffffff" stroke-width="8.0" stroke-linejoin="round" stroke-linecap="butt" d="m928.874 269.44992l-3.1810913 74.99213" fill-rule="evenodd"/><path fill="#000000" fill-opacity="0.0" d="m941.5958 416.19006l124.47241 57.448822" fill-rule="evenodd"/><path stroke="#ffffff" stroke-width="8.0" stroke-linejoin="round" stroke-linecap="butt" d="m941.5958 416.19006l124.47241 57.448822" fill-rule="evenodd"/><path fill="#000000" fill-opacity="0.0" d="m1109.0394 650.71765l-7.968506 -102.141785" fill-rule="evenodd"/><path stroke="#ffffff" stroke-width="8.0" stroke-linejoin="round" stroke-linecap="butt" d="m1109.0394 650.71765l-7.968506 -102.141785" fill-rule="evenodd"/><path fill="#000000" fill-opacity="0.0" d="m1140.9081 478.44467l105.322876 -47.874023" fill-rule="evenodd"/><path stroke="#ffffff" stroke-width="8.0" stroke-linejoin="round" stroke-linecap="butt" d="m1140.9081 478.44467l105.322876 -47.874023" fill-rule="evenodd"/><path fill="#000000" fill-opacity="0.0" d="m1133.0394 642.71765l-7.968506 -102.141785" fill-rule="evenodd"/><path stroke="#ffffff" stroke-width="8.0" stroke-linejoin="round" stroke-linecap="butt" d="m1133.0394 642.71765l-7.968506 -102.141785" fill-rule="evenodd"/><path fill="#000000" fill-opacity="0.0" d="m447.9685 454.92023l79.433044 -45.7323" fill-rule="evenodd"/><path stroke="#ffffff" stroke-width="8.0" stroke-linejoin="round" stroke-linecap="butt" d="m447.9685 454.92023l79.433044 -45.7323" fill-rule="evenodd"/><path fill="#000000" fill-opacity="0.0" d="m463.16415 165.81749l85.25986 47.08661" fill-rule="evenodd"/><path stroke="#ffffff" stroke-width="8.0" stroke-linejoin="round" stroke-linecap="butt" d="m463.16415 165.81749l85.25986 47.08661" fill-rule="evenodd"/><path fill="#000000" fill-opacity="0.0" d="m278.53543 348.4171l6.9606323 -94.17323" fill-rule="evenodd"/><path stroke="#ffffff" stroke-width="8.0" stroke-linejoin="round" stroke-linecap="butt" d="m278.53543 348.4171l6.9606323 -94.17323" fill-rule="evenodd"/></g></svg>