<svg version="1.1" viewBox="0.0 0.0 904.01312335958 840.3070866141733" fill="none" stroke="none" stroke-linecap="square" stroke-miterlimit="10" xmlns:xlink="http://www.w3.org/1999/xlink" xmlns="http://www.w3.org/2000/svg"><clipPath id="p.0"><path d="m0 0l904.0131 0l0 840.30707l-904.0131 0l0 -840.30707z" clip-rule="nonzero"/></clipPath><g clip-path="url(#p.0)"><path fill="#000000" fill-opacity="0.0" d="m0 0l904.0131 0l0 840.30707l-904.0131 0z" fill-rule="evenodd"/><path fill="#ffffff" d="m354.208 279.72888l18.371613 -10.472748l7.9906006 -24.078415l7.9906006 24.078415l18.371582 10.472748l-18.371582 10.472778l-7.9906006 24.0784l-7.9906006 -24.0784z" fill-rule="evenodd"/><path stroke="#ffffff" stroke-width="1.0" stroke-linejoin="round" stroke-linecap="butt" d="m354.208 279.72888l18.371613 -10.472748l7.9906006 -24.078415l7.9906006 24.078415l18.371582 10.472748l-18.371582 10.472778l-7.9906006 24.0784l-7.9906006 -24.0784z" fill-rule="evenodd"/><path fill="#ffffff" d="m516.70593 370.09622l18.371582 -10.472748l7.9906006 -24.07843l7.9906006 24.07843l18.371643 10.472748l-18.371643 10.472748l-7.9906006 24.07843l-7.9906006 -24.07843z" fill-rule="evenodd"/><path stroke="#ffffff" stroke-width="1.0" stroke-linejoin="round" stroke-linecap="butt" d="m516.70593 370.09622l18.371582 -10.472748l7.9906006 -24.07843l7.9906006 24.07843l18.371643 10.472748l-18.371643 10.472748l-7.9906006 24.07843l-7.9906006 -24.07843z" fill-rule="evenodd"/><path fill="#ffffff" d="m378.43976 634.8739l18.371582 -10.472778l7.9906006 -24.07843l7.990631 24.07843l18.371582 10.472778l-18.371582 10.472778l-7.990631 24.07843l-7.9906006 -24.07843z" fill-rule="evenodd"/><path stroke="#ffffff" stroke-width="1.0" stroke-linejoin="round" stroke-linecap="butt" d="m378.43976 634.8739l18.371582 -10.472778l7.9906006 -24.07843l7.990631 24.07843l18.371582 10.472778l-18.371582 10.472778l-7.990631 24.07843l-7.9906006 -24.07843z" fill-rule="evenodd"/><path fill="#ffffff" d="m215.94182 552.5066l18.371597 -10.472778l7.990616 -24.07843l7.9906006 24.07843l18.371597 10.472778l-18.371597 10.472717l-7.9906006 24.07843l-7.990616 -24.07843z" fill-rule="evenodd"/><path stroke="#ffffff" stroke-width="1.0" stroke-linejoin="round" stroke-linecap="butt" d="m215.94182 552.5066l18.371597 -10.472778l7.990616 -24.07843l7.9906006 24.07843l18.371597 10.472778l-18.371597 10.472717l-7.9906006 24.07843l-7.990616 -24.07843z" fill-rule="evenodd"/><path fill="#ffffff" d="m200.86179 388.83554l18.371613 -10.472748l7.9906006 -24.07843l7.9906006 24.07843l18.371597 10.472748l-18.371597 10.472748l-7.9906006 24.07843l-7.9906006 -24.07843z" fill-rule="evenodd"/><path stroke="#ffffff" stroke-width="1.0" stroke-linejoin="round" stroke-linecap="butt" d="m200.86179 388.83554l18.371613 -10.472748l7.9906006 -24.07843l7.9906006 24.07843l18.371597 10.472748l-18.371597 10.472748l-7.9906006 24.07843l-7.9906006 -24.07843z" fill-rule="evenodd"/><path fill="#ffffff" d="m531.48047 544.4754l18.371643 -10.472778l7.9906006 -24.07843l7.9906006 24.07843l18.371582 10.472778l-18.371582 10.472717l-7.9906006 24.07843l-7.9906006 -24.07843z" fill-rule="evenodd"/><path stroke="#ffffff" stroke-width="1.0" stroke-linejoin="round" stroke-linecap="butt" d="m531.48047 544.4754l18.371643 -10.472778l7.9906006 -24.07843l7.9906006 24.07843l18.371582 10.472778l-18.371582 10.472717l-7.9906006 24.07843l-7.9906006 -24.07843z" fill-rule="evenodd"/><path fill="#ffffff" d="m684.0156 300.99387l18.371643 -10.472748l7.9906006 -24.07843l7.9906006 24.07843l18.371582 10.472748l-18.371582 10.472748l-7.9906006 24.07843l-7.9906006 -24.07843z" fill-rule="evenodd"/><path stroke="#ffffff" stroke-width="1.0" stroke-linejoin="round" stroke-linecap="butt" d="m684.0156 300.99387l18.371643 -10.472748l7.9906006 -24.07843l7.9906006 24.07843l18.371582 10.472748l-18.371582 10.472748l-7.9906006 24.07843l-7.9906006 -24.07843z" fill-rule="evenodd"/><path fill="#ffffff" d="m803.9264 424.43744l18.371643 -10.472748l7.9906006 -24.07843l7.9906006 24.07843l18.371582 10.472748l-18.371582 10.472748l-7.9906006 24.07843l-7.9906006 -24.07843z" fill-rule="evenodd"/><path stroke="#ffffff" stroke-width="1.0" stroke-linejoin="round" stroke-linecap="butt" d="m803.9264 424.43744l18.371643 -10.472748l7.9906006 -24.07843l7.9906006 24.07843l18.371582 10.472748l-18.371582 10.472748l-7.9906006 24.07843l-7.9906006 -24.07843z" fill-rule="evenodd"/><path fill="#ffffff" d="m710.95526 565.77075l18.371643 -10.472717l7.9906006 -24.07843l7.9906006 24.07843l18.371582 10.472717l-18.371582 10.472778l-7.9906006 24.07843l-7.9906006 -24.07843z" fill-rule="evenodd"/><path stroke="#ffffff" stroke-width="1.0" stroke-linejoin="round" stroke-linecap="butt" d="m710.95526 565.77075l18.371643 -10.472717l7.9906006 -24.07843l7.9906006 24.07843l18.371582 10.472717l-18.371582 10.472778l-7.9906006 24.07843l-7.9906006 -24.07843z" fill-rule="evenodd"/><path fill="#ffffff" d="m354.208 73.32469l18.371613 -10.472752l7.9906006 -24.078426l7.9906006 24.078426l18.371582 10.472752l-18.371582 10.472755l-7.9906006 24.07843l-7.9906006 -24.07843z" fill-rule="evenodd"/><path stroke="#ffffff" stroke-width="1.0" stroke-linejoin="round" stroke-linecap="butt" d="m354.208 73.32469l18.371613 -10.472752l7.9906006 -24.078426l7.9906006 24.078426l18.371582 10.472752l-18.371582 10.472755l-7.9906006 24.07843l-7.9906006 -24.07843z" fill-rule="evenodd"/><path fill="#ffffff" d="m40.24475 661.74725l18.371601 -10.472717l7.9906044 -24.07843l7.990608 24.07843l18.371597 10.472717l-18.371597 10.472778l-7.990608 24.07843l-7.9906044 -24.07843z" fill-rule="evenodd"/><path stroke="#ffffff" stroke-width="1.0" stroke-linejoin="round" stroke-linecap="butt" d="m40.24475 661.74725l18.371601 -10.472717l7.9906044 -24.07843l7.990608 24.07843l18.371597 10.472717l-18.371597 10.472778l-7.990608 24.07843l-7.9906044 -24.07843z" fill-rule="evenodd"/><path fill="#000000" fill-opacity="0.0" d="m261.9344 345.43045l70.99213 -46.740173" fill-rule="evenodd"/><path stroke="#ffffff" stroke-width="8.0" stroke-linejoin="round" stroke-linecap="butt" d="m261.9344 345.43045l70.99213 -46.740173" fill-rule="evenodd"/><path fill="#000000" fill-opacity="0.0" d="m438.51443 295.2257l64.06299 36.346466" fill-rule="evenodd"/><path stroke="#ffffff" stroke-width="8.0" stroke-linejoin="round" stroke-linecap="butt" d="m438.51443 295.2257l64.06299 36.346466" fill-rule="evenodd"/><path fill="#000000" fill-opacity="0.0" d="m365.1496 130.11023l0 81.35434" fill-rule="evenodd"/><path stroke="#ffffff" stroke-width="8.0" stroke-linejoin="round" stroke-linecap="butt" d="m365.1496 130.11023l0 81.35434" fill-rule="evenodd"/><path fill="#000000" fill-opacity="0.0" d="m397.1496 130.11023l0 81.35434" fill-rule="evenodd"/><path stroke="#ffffff" stroke-width="8.0" stroke-linejoin="round" stroke-linecap="butt" d="m397.1496 130.11023l0 81.35434" fill-rule="evenodd"/><path fill="#000000" fill-opacity="0.0" d="m551.03937 431.9895l1.7322998 45.007874" fill-rule="evenodd"/><path stroke="#ffffff" stroke-width="8.0" stroke-linejoin="round" stroke-linecap="butt" d="m551.03937 431.9895l1.7322998 45.007874" fill-rule="evenodd"/><path fill="#000000" fill-opacity="0.0" d="m578.73755 407.7533l5.1968384 86.55118" fill-rule="evenodd"/><path stroke="#ffffff" stroke-width="8.0" stroke-linejoin="round" stroke-linecap="butt" d="m578.73755 407.7533l5.1968384 86.55118" fill-rule="evenodd"/><path fill="#000000" fill-opacity="0.0" d="m100.937004 267.52756l90.015755 88.28348" fill-rule="evenodd"/><path stroke="#ffffff" stroke-width="8.0" stroke-linejoin="round" stroke-linecap="butt" d="m100.937004 267.52756l90.015755 88.28348" fill-rule="evenodd"/><path fill="#000000" fill-opacity="0.0" d="m100.937004 625.8793l91.74804 -53.66931" fill-rule="evenodd"/><path stroke="#ffffff" stroke-width="8.0" stroke-linejoin="round" stroke-linecap="butt" d="m100.937004 625.8793l91.74804 -53.66931" fill-rule="evenodd"/><path fill="#000000" fill-opacity="0.0" d="m114.7874 649.4593l83.08661 -48.472412" fill-rule="evenodd"/><path stroke="#ffffff" stroke-width="8.0" stroke-linejoin="round" stroke-linecap="butt" d="m114.7874 649.4593l83.08661 -48.472412" fill-rule="evenodd"/><path fill="#000000" fill-opacity="0.0" d="m225.58005 440.0118l3.464569 49.102356" fill-rule="evenodd"/><path stroke="#ffffff" stroke-width="8.0" stroke-linejoin="round" stroke-linecap="butt" d="m225.58005 440.0118l3.464569 49.102356" fill-rule="evenodd"/><path fill="#000000" fill-opacity="0.0" d="m280.979 582.6011l64.06299 29.417297" fill-rule="evenodd"/><path stroke="#ffffff" stroke-width="8.0" stroke-linejoin="round" stroke-linecap="butt" d="m280.979 582.6011l64.06299 29.417297" fill-rule="evenodd"/><path fill="#000000" fill-opacity="0.0" d="m439.16415 626.8739l85.25986 -47.08661" fill-rule="evenodd"/><path stroke="#ffffff" stroke-width="8.0" stroke-linejoin="round" stroke-linecap="butt" d="m439.16415 626.8739l85.25986 -47.08661" fill-rule="evenodd"/><path fill="#000000" fill-opacity="0.0" d="m405.62204 692.3202l3.464569 96.944885" fill-rule="evenodd"/><path stroke="#ffffff" stroke-width="8.0" stroke-linejoin="round" stroke-linecap="butt" d="m405.62204 692.3202l3.464569 96.944885" fill-rule="evenodd"/><path fill="#000000" fill-opacity="0.0" d="m585.66406 341.9685l69.25983 -31.149597" fill-rule="evenodd"/><path stroke="#ffffff" stroke-width="8.0" stroke-linejoin="round" stroke-linecap="butt" d="m585.66406 341.9685l69.25983 -31.149597" fill-rule="evenodd"/><path fill="#000000" fill-opacity="0.0" d="m762.24146 322.9265l45.007874 43.275574" fill-rule="evenodd"/><path stroke="#ffffff" stroke-width="8.0" stroke-linejoin="round" stroke-linecap="butt" d="m762.24146 322.9265l45.007874 43.275574" fill-rule="evenodd"/><path fill="#000000" fill-opacity="0.0" d="m729.34906 243.29134l50.204773 -102.14172" fill-rule="evenodd"/><path stroke="#ffffff" stroke-width="8.0" stroke-linejoin="round" stroke-linecap="butt" d="m729.34906 243.29134l50.204773 -102.14172" fill-rule="evenodd"/><path fill="#000000" fill-opacity="0.0" d="m613.3622 563.55646l69.25989 20.787354" fill-rule="evenodd"/><path stroke="#ffffff" stroke-width="8.0" stroke-linejoin="round" stroke-linecap="butt" d="m613.3622 563.55646l69.25989 20.787354" fill-rule="evenodd"/><path fill="#000000" fill-opacity="0.0" d="m779.55383 553.7139l47.275574 -85.51184" fill-rule="evenodd"/><path stroke="#ffffff" stroke-width="8.0" stroke-linejoin="round" stroke-linecap="butt" d="m779.55383 553.7139l47.275574 -85.51184" fill-rule="evenodd"/><path fill="#000000" fill-opacity="0.0" d="m761.1076 531.34906l47.275574 -85.51178" fill-rule="evenodd"/><path stroke="#ffffff" stroke-width="8.0" stroke-linejoin="round" stroke-linecap="butt" d="m761.1076 531.34906l47.275574 -85.51178" fill-rule="evenodd"/></g></svg>