<svg version="1.1" viewBox="0.0 0.0 904.01312335958 840.3070866141733" fill="none" stroke="none" stroke-linecap="square" stroke-miterlimit="10" xmlns:xlink="http://www.w3.org/1999/xlink" xmlns="http://www.w3.org/2000/svg"><clipPath id="p.0"><path d="m0 0l904.0131 0l0 840.30707l-904.0131 0l0 -840.30707z" clip-rule="nonzero"/></clipPath><g clip-path="url(#p.0)"><path fill="#000000" fill-opacity="0.0" d="m0 0l904.0131 0l0 840.30707l-904.0131 0z" fill-rule="evenodd"/><path fill="#ffffff" d="m757.36993 420.1537l-203.0799 103.97595l-74.29019 284.22876l-74.29022 -284.22876l-203.07986 -103.97595l203.07986 -103.97595l74.29022 -284.2288l74.29019 284.2288z" fill-rule="evenodd"/><path fill="#7cffed" d="m262.93314 490.8171c-10.874908 14.058197 -120.0652 168.6973 -100.26248 187.79526c19.80272 19.098022 151.7966 -38.990356 219.07874 -73.20734c67.282166 -34.21698 129.44226 -79.31012 184.6142 -132.09448c55.171875 -52.784332 110.25281 -120.15616 146.4173 -184.61154c36.16449 -64.45538 94.35126 -185.1448 70.56958 -202.12074c-23.781738 -16.975937 -200.26294 91.51181 -213.25989 100.26509c-12.996887 8.753281 124.93353 -62.864388 135.27826 -47.745407c10.344666 15.118988 -40.584473 92.836395 -73.21002 138.45934c-32.62549 45.622894 -77.45099 93.10367 -122.543274 135.2782c-45.092316 42.17453 -101.06125 87.53107 -148.0105 117.76901c-46.94925 30.237976 -117.23973 70.29004 -133.68504 63.658813c-16.445312 -6.6312256 45.888016 -117.504364 35.013138 -103.4462z" fill-rule="evenodd"/><path stroke="#7cffed" stroke-width="4.0" stroke-linejoin="round" stroke-linecap="butt" d="m262.93314 490.8171c-10.874908 14.058197 -120.0652 168.6973 -100.26248 187.79526c19.80272 19.098022 151.7966 -38.990356 219.07874 -73.20734c67.282166 -34.21698 129.44226 -79.31012 184.6142 -132.09448c55.171875 -52.784332 110.25281 -120.15616 146.4173 -184.61154c36.16449 -64.45538 94.35126 -185.1448 70.56958 -202.12074c-23.781738 -16.975937 -200.26294 91.51181 -213.25989 100.26509c-12.996887 8.753281 124.93353 -62.864388 135.27826 -47.745407c10.344666 15.118988 -40.584473 92.836395 -73.21002 138.45934c-32.62549 45.622894 -77.45099 93.10367 -122.543274 135.2782c-45.092316 42.17453 -101.06125 87.53107 -148.0105 117.76901c-46.94925 30.237976 -117.23973 70.29004 -133.68504 63.658813c-16.445312 -6.6312256 45.888016 -117.504364 35.013138 -103.4462z" fill-rule="evenodd"/></g></svg>